# xmcd
#
# Track frame offsets: 
#        150
#        13230
#        23491
#        36081
#        46696
#        58540
#        72757
#        82596
#        95312
#        110978
#        120170
#        128983
#        146460
#        161205
#        172108
#        184246
#        196955
#        207014
#        216028
#        227480
#        239337
#        255228
#        267454
#        280926
#
# Disc length: 3907 seconds
#
# Revision: 2
# Processed by: cddbd v1.5.2PL0 Copyright (c) Steve Scherf et al.
# Submitted via: ExactAudioCopy v1.1
#
DISCID=470f4118
DTITLE=Tennessee Ernie Ford - 8 Classic Albums_CD1
DYEAR=2016
DGENRE=Country
TTITLE0=John Henry 
TTITLE1=Trouble in mind 
TTITLE2=Dark as a dungeon 
TTITLE3=False hearted girl 
TTITLE4=Chicken road
TTITLE5=Who will shoe your pretty little foot 
TTITLE6=The rovin' gambler 
TTITLE7=In the pines 
TTITLE8=I gave my love a cherry 
TTITLE9=Nine pound hammer 
TTITLE10=Gaily the troubadour 
TTITLE11=The last letter 
TTITLE12=Who at the door is standing
TTITLE13=Rock of ages 
TTITLE14=Softly and tenderly 
TTITLE15=Sweet hour of prayer 
TTITLE16=My task 
TTITLE17=Let the lower lights be burning 
TTITLE18=The ninety and nine 
TTITLE19=The old rugged cross 
TTITLE20=When they ring the golden bells 
TTITLE21=In the garden 
TTITLE22=Ivory places 
TTITLE23=Others 
EXTD=
EXTT0=
EXTT1=
EXTT2=
EXTT3=
EXTT4=
EXTT5=
EXTT6=
EXTT7=
EXTT8=
EXTT9=
EXTT10=
EXTT11=
EXTT12=
EXTT13=
EXTT14=
EXTT15=
EXTT16=
EXTT17=
EXTT18=
EXTT19=
EXTT20=
EXTT21=
EXTT22=
EXTT23=
PLAYORDER=
